<svg width="30" height="36" viewBox="0 0 30 36" fill="none" xmlns="http://www.w3.org/2000/svg">
<path d="M24.541 30.1347C23.1369 27.4534 22.5233 23.2788 21.8461 20.3964C21.1688 17.514 19.435 12.4877 15.9137 10.9151C12.3923 9.34243 9.81862 8.89188 8.6362 6.63373C7.75424 4.95007 6.57251 2.00619 5.86724 0.659923C5.62641 0.202093 5.51727 0.055228 5.32531 0.00698636C5.01036 -0.0726404 4.57396 0.553578 4.44696 0.814626C3.30649 3.1578 -0.651969 10.9411 0.0942946 18.4812C0.974388 27.3718 7.84184 32.5868 12.6397 33.8504C17.4376 35.114 22.2219 35.6652 29.1104 34.3957C29.9843 33.4887 25.9461 32.8162 24.541 30.1347Z" fill="url(#paint0_linear_26871_366)"/>
<defs>
<linearGradient id="paint0_linear_26871_366" x1="7.69141" y1="-1.85547" x2="11.9448" y2="37.6593" gradientUnits="userSpaceOnUse">
<stop stop-color="#FFB800"/>
<stop offset="1" stop-color="#FF710D"/>
</linearGradient>
</defs>
</svg>
