<svg width="72" height="72" viewBox="0 0 72 72" fill="none" xmlns="http://www.w3.org/2000/svg">
<path d="M36 2.25C17.2969 2.25 2.25 17.4375 2.25 36C2.25 54.7031 17.2969 69.75 36 69.75C54.5625 69.75 69.75 54.7031 69.75 36C69.75 35.4375 70.1719 34.875 70.875 34.875C71.4375 34.875 72 35.4375 72 36C72 55.9688 55.8281 72 36 72C16.0312 72 0 55.9688 0 36C0 16.1719 16.0312 0 36 0C45.4219 0 54.1406 3.79688 60.6094 9.84375L66.6562 3.79688C67.0781 3.375 67.7812 3.375 68.2031 3.79688C68.625 4.21875 68.625 4.92188 68.2031 5.34375L36.7031 36.8438C36.2812 37.2656 35.5781 37.2656 35.1562 36.8438C34.7344 36.4219 34.7344 35.7188 35.1562 35.2969L39.7969 30.5156C38.6719 29.8125 37.4062 29.25 36 29.25C32.2031 29.25 29.25 32.3438 29.25 36C29.25 39.7969 32.2031 42.75 36 42.75C39.6562 42.75 42.75 39.7969 42.75 36C42.75 35.4375 43.1719 34.875 43.875 34.875C44.4375 34.875 45 35.4375 45 36C45 41.0625 40.9219 45 36 45C30.9375 45 27 41.0625 27 36C27 31.0781 30.9375 27 36 27C37.9688 27 39.9375 27.7031 41.4844 28.9688L49.5 20.9531C45.8438 17.7188 41.0625 15.75 36 15.75C27.8438 15.75 20.8125 20.6719 17.5781 27.5625C17.2969 28.125 16.5938 28.4062 16.0312 28.125C15.4688 27.8438 15.1875 27.1406 15.4688 26.5781C19.125 18.8438 26.8594 13.5 36 13.5C41.7656 13.5 46.9688 15.75 51.0469 19.4062L58.9219 11.3906C53.0156 5.76562 44.8594 2.25 36 2.25ZM7.875 36C7.875 32.9062 10.2656 30.375 13.5 30.375C16.5938 30.375 19.125 32.9062 19.125 36C19.125 39.2344 16.5938 41.625 13.5 41.625C10.2656 41.625 7.875 39.2344 7.875 36ZM13.5 32.625C11.5312 32.625 10.125 34.1719 10.125 36C10.125 37.9688 11.5312 39.375 13.5 39.375C15.3281 39.375 16.875 37.9688 16.875 36C16.875 34.1719 15.3281 32.625 13.5 32.625ZM41.625 58.5C41.625 61.7344 39.0938 64.125 36 64.125C32.7656 64.125 30.375 61.7344 30.375 58.5C30.375 55.4062 32.7656 52.875 36 52.875C39.0938 52.875 41.625 55.4062 41.625 58.5ZM36 61.875C37.8281 61.875 39.375 60.4688 39.375 58.5C39.375 56.6719 37.8281 55.125 36 55.125C34.0312 55.125 32.625 56.6719 32.625 58.5C32.625 60.4688 34.0312 61.875 36 61.875ZM45.4219 56.5312C44.8594 56.6719 44.1562 56.5312 43.875 55.9688C43.5938 55.4062 43.875 54.7031 44.4375 54.4219C51.3281 51.1875 56.25 44.1562 56.25 36C56.25 35.4375 56.6719 34.875 57.375 34.875C57.9375 34.875 58.5 35.4375 58.5 36C58.5 45.1406 53.1562 52.875 45.4219 56.5312ZM27.4219 54.4219C27.9844 54.7031 28.2656 55.4062 27.9844 55.9688C27.7031 56.5312 27 56.6719 26.4375 56.5312C21.6562 54.2812 17.7188 50.3438 15.4688 45.5625C15.1875 45 15.4688 44.2969 16.0312 44.0156C16.5938 43.7344 17.2969 44.0156 17.5781 44.5781C19.5469 48.9375 23.0625 52.4531 27.4219 54.4219Z" fill="white"/>
</svg>
