<svg width="919" height="739" viewBox="0 0 919 739" fill="none" xmlns="http://www.w3.org/2000/svg">
  <g filter="url(#filter0_d_28071_336)">
    <path
      d="M596.702 295.653C619.14 286.295 652.975 284.308 676.514 280.906C700.054 277.504 741.488 267.15 756.538 240.073C771.587 212.995 776.994 192.716 795.892 184.836C809.982 178.957 834.367 171.562 845.633 166.86C849.465 165.254 850.717 164.483 851.237 162.981C852.095 160.517 847.39 156.586 845.39 155.387C827.438 144.62 767.927 107.496 707.068 108.189C635.309 109.007 588.771 160.31 575.3 197.818C561.83 235.326 554.07 273.225 559.406 329.235C566.052 336.863 574.261 305.02 596.702 295.653Z"
      fill="black" fill-opacity="0.5" shape-rendering="crispEdges" />
  </g>
  <g filter="url(#filter1_d_28071_336)">
    <path
      d="M617.282 373.086C633.751 390.97 647.19 422.085 658.438 443.041C669.685 463.997 693.586 499.392 724.178 504.273C754.77 509.154 775.675 507.299 789.544 522.362C799.887 533.591 815.176 553.976 823.447 562.955C826.268 566.007 827.42 566.919 829.01 566.894C831.619 566.857 833.703 561.091 834.146 558.802C838.123 538.25 852.655 469.631 831.189 412.68C805.877 345.528 741.751 319.343 701.898 319.513C662.044 319.684 623.777 325.354 572.97 349.525C568.075 358.379 600.805 355.202 617.282 373.086Z"
      fill="black" fill-opacity="0.5" shape-rendering="crispEdges" />
  </g>
  <g filter="url(#filter2_d_28071_336)">
    <path
      d="M537.31 427.848C522.557 447.172 494.248 465.81 475.564 480.526C456.879 495.241 426.173 524.926 426.678 555.9C427.184 586.875 432.641 607.14 420.215 623.414C410.952 635.55 393.532 654.147 386.126 663.852C383.61 667.159 382.912 668.452 383.212 670.014C383.702 672.577 389.742 673.628 392.073 673.666C413.003 674.014 483.104 676.41 535.462 645.381C597.198 608.792 611.85 541.094 604.762 501.875C597.674 462.657 585.444 425.956 552.818 380.117C543.249 376.835 552.061 408.516 537.31 427.848Z"
      fill="black" fill-opacity="0.5" shape-rendering="crispEdges" />
  </g>
  <g filter="url(#filter3_d_28071_336)">
    <path
      d="M208.646 283.387C229.77 274.449 254.828 276.388 278.5 282.796C302.162 289.201 324.368 300.053 339.74 308.849C347.429 313.249 355.795 318.343 364.571 323.665C373.346 328.985 382.529 334.531 391.843 339.828C410.466 350.417 429.648 360.028 447.192 364.847C464.836 369.689 483.432 364.566 497.616 360.181C504.747 357.976 510.714 355.975 514.962 355.449C517.089 355.186 518.681 355.309 519.748 355.877C520.732 356.401 521.355 357.352 521.477 359.013C476.397 429.576 432.562 466.912 382.379 498.569C332.251 530.191 230.686 547.717 145.8 482.942C73.7739 427.978 37.9644 329.85 26.7434 300.689C26.1354 299.11 25.3535 296.111 25.1298 293.257C25.018 291.83 25.0485 290.468 25.2941 289.349C25.5414 288.223 25.9895 287.42 26.6482 286.995L26.6483 286.995C27.5378 286.419 28.4692 286.175 29.9225 286.272C31.2212 286.36 32.9101 286.719 35.3175 287.355L36.3932 287.644C45.1516 290.048 58.382 294.671 72.1916 299.454C85.126 303.935 98.5623 308.554 109.253 311.602L111.353 312.19C126.224 316.276 139.949 313.542 155.237 307.568C162.878 304.583 170.924 300.781 179.706 296.609C188.492 292.434 198.021 287.883 208.646 283.387Z"
      stroke="url(#paint0_linear_28071_336)" shape-rendering="crispEdges" />
  </g>
  <g filter="url(#filter4_d_28071_336)">
    <path
      d="M506.503 286.212C502.432 262.243 508.107 228.828 510.087 205.127C512.068 181.426 511.3 138.724 488.302 117.969C465.304 97.2144 446.761 87.3841 443.333 67.1981C440.775 52.1466 439.054 26.7236 437.008 14.6883C436.305 10.5929 435.836 9.20004 434.489 8.35499C432.28 6.96491 427.392 10.6657 425.774 12.3447C411.245 27.4144 361.685 77.049 348.67 136.504C333.325 206.608 372.844 263.493 406.361 285.056C439.877 306.619 475.059 322.705 530.834 330.106C539.761 325.346 510.581 310.184 506.503 286.212Z"
      fill="black" fill-opacity="0.5" shape-rendering="crispEdges" />
  </g>
  <defs>
    <filter id="filter0_d_28071_336" x="550.707" y="108.179" width="307.633" height="236.225"
      filterUnits="userSpaceOnUse" color-interpolation-filters="sRGB">
      <feFlood flood-opacity="0" result="BackgroundImageFix" />
      <feColorMatrix in="SourceAlpha" type="matrix" values="0 0 0 0 0 0 0 0 0 0 0 0 0 0 0 0 0 0 127 0"
        result="hardAlpha" />
      <feOffset dy="7" />
      <feGaussianBlur stdDeviation="3.5" />
      <feComposite in2="hardAlpha" operator="out" />
      <feColorMatrix type="matrix" values="0 0 0 0 0 0 0 0 0 0 0 0 0 0 0 0 0 0 0.34 0" />
      <feBlend mode="normal" in2="BackgroundImageFix" result="effect1_dropShadow_28071_336" />
      <feBlend mode="normal" in="SourceGraphic" in2="effect1_dropShadow_28071_336" result="shape" />
    </filter>
    <pattern id="filter0_d_28071_336" patternContentUnits="objectBoundingBox" width="1" height="1">
      <img href="https://picsum.photos/400/400?random=11" width="1" height="1" preserveAspectRatio="xMidYMid slice" />
    </pattern>
    <filter id="filter1_d_28071_336" x="565.477" y="319.513" width="284.172" height="261.382"
      filterUnits="userSpaceOnUse" color-interpolation-filters="sRGB">
      <feFlood flood-opacity="0" result="BackgroundImageFix" />
      <feColorMatrix in="SourceAlpha" type="matrix" values="0 0 0 0 0 0 0 0 0 0 0 0 0 0 0 0 0 0 127 0"
        result="hardAlpha" />
      <feOffset dy="7" />
      <feGaussianBlur stdDeviation="3.5" />
      <feComposite in2="hardAlpha" operator="out" />
      <feColorMatrix type="matrix" values="0 0 0 0 0 0 0 0 0 0 0 0 0 0 0 0 0 0 0.34 0" />
      <feBlend mode="normal" in2="BackgroundImageFix" result="effect1_dropShadow_28071_336" />
      <feBlend mode="normal" in="SourceGraphic" in2="effect1_dropShadow_28071_336" result="shape" />
    </filter>
    <pattern id="filter1_d_28071_336" patternContentUnits="objectBoundingBox" width="1" height="1">
      <img href="https://picsum.photos/400/400?random=11" width="1" height="1" preserveAspectRatio="xMidYMid slice" />
    </pattern>
    <filter id="filter2_d_28071_336" x="376.148" y="379.881" width="237.25" height="307.966"
      filterUnits="userSpaceOnUse" color-interpolation-filters="sRGB">
      <feFlood flood-opacity="0" result="BackgroundImageFix" />
      <feColorMatrix in="SourceAlpha" type="matrix" values="0 0 0 0 0 0 0 0 0 0 0 0 0 0 0 0 0 0 127 0"
        result="hardAlpha" />
      <feOffset dy="7" />
      <feGaussianBlur stdDeviation="3.5" />
      <feComposite in2="hardAlpha" operator="out" />
      <feColorMatrix type="matrix" values="0 0 0 0 0 0 0 0 0 0 0 0 0 0 0 0 0 0 0.34 0" />
      <feBlend mode="normal" in2="BackgroundImageFix" result="effect1_dropShadow_28071_336" />
      <feBlend mode="normal" in="SourceGraphic" in2="effect1_dropShadow_28071_336" result="shape" />
    </filter>
    <pattern id="filter2_d_28071_336" patternContentUnits="objectBoundingBox" width="1" height="1">
      <img href="https://picsum.photos/400/400?random=11" width="1" height="1" preserveAspectRatio="xMidYMid slice" />
    </pattern>
    <filter id="filter3_d_28071_336" x="0.566406" y="268.826" width="545.422" height="298.582"
      filterUnits="userSpaceOnUse" color-interpolation-filters="sRGB">
      <feFlood flood-opacity="0" result="BackgroundImageFix" />
      <feColorMatrix in="SourceAlpha" type="matrix" values="0 0 0 0 0 0 0 0 0 0 0 0 0 0 0 0 0 0 127 0"
        result="hardAlpha" />
      <feOffset dy="16" />
      <feGaussianBlur stdDeviation="12" />
      <feComposite in2="hardAlpha" operator="out" />
      <feColorMatrix type="matrix" values="0 0 0 0 0.121569 0 0 0 0 0.133333 0 0 0 0 0.152941 0 0 0 0.3 0" />
      <feBlend mode="normal" in2="BackgroundImageFix" result="effect1_dropShadow_28071_336" />
      <feBlend mode="normal" in="SourceGraphic" in2="effect1_dropShadow_28071_336" result="shape" />
    </filter>
    <pattern id="filter3_d_28071_336" patternContentUnits="objectBoundingBox" width="1" height="1">
      <img href="https://picsum.photos/400/400?random=11" width="1" height="1" preserveAspectRatio="xMidYMid slice" />
    </pattern>
    <filter id="filter4_d_28071_336" x="338.262" y="8.04907" width="201.262" height="336.057"
      filterUnits="userSpaceOnUse" color-interpolation-filters="sRGB">
      <feFlood flood-opacity="0" result="BackgroundImageFix" />
      <feColorMatrix in="SourceAlpha" type="matrix" values="0 0 0 0 0 0 0 0 0 0 0 0 0 0 0 0 0 0 127 0"
        result="hardAlpha" />
      <feOffset dy="7" />
      <feGaussianBlur stdDeviation="3.5" />
      <feComposite in2="hardAlpha" operator="out" />
      <feColorMatrix type="matrix" values="0 0 0 0 0 0 0 0 0 0 0 0 0 0 0 0 0 0 0.34 0" />
      <feBlend mode="normal" in2="BackgroundImageFix" result="effect1_dropShadow_28071_336" />
      <feBlend mode="normal" in="SourceGraphic" in2="effect1_dropShadow_28071_336" result="shape" />
    </filter>
    <pattern id="filter4_d_28071_336" patternContentUnits="objectBoundingBox" width="1" height="1">
      <img href="https://picsum.photos/400/400?random=11" width="1" height="1" preserveAspectRatio="xMidYMid slice" />
    </pattern>
    <linearGradient id="paint0_linear_28071_336" x1="29.3906" y1="250.629" x2="410.339" y2="536.199"
      gradientUnits="userSpaceOnUse">
      <stop stop-color="#FFB800" />
      <stop offset="1" stop-color="#FF710D" />
    </linearGradient>
  </defs>
</svg>